<svg width="124" height="12" viewBox="0 0 124 12" fill="none" xmlns="http://www.w3.org/2000/svg">
<path d="M8.71901 7.2738H6.54721V10.0287H8.71901V7.2738Z" fill="white"/>
<path d="M0 7.2738V10.0287H2.17177V7.2738H0.405657H0Z" fill="white"/>
<path d="M10.9333 7.2738V10.0287H13.0856H13.1051V7.2738H10.9333Z" fill="white"/>
<path d="M27.8661 7.27381C27.5692 7.60945 27.201 7.87885 26.7867 8.06353C26.3724 8.24827 25.9218 8.34385 25.4658 8.34385C25.0098 8.34385 24.5592 8.24827 24.1449 8.06353C23.7306 7.87885 23.3623 7.60945 23.0655 7.27381H20.481C21.2658 9.13044 23.0762 10.3052 25.4605 10.3052C27.8448 10.3052 29.6606 9.12702 30.4311 7.27039H27.8661V7.27381Z" fill="white"/>
<path d="M38.8704 7.27368V8.15652H34.7961C34.9184 7.86966 35.0282 7.57422 35.1309 7.27368H32.8936C32.7856 7.57254 32.6669 7.8645 32.5393 8.15652H31.5898V11.8681H33.6341V10.0286H40.1795V11.8681H42.222V8.15652H41.028V7.27368H38.8704Z" fill="white"/>
<path d="M49.5768 7.27368C49.4511 8.03796 48.7088 8.3901 47.3502 8.3901C46.9002 8.3901 46.4344 8.35914 45.9508 8.32824V7.27368H43.7808V9.99594C44.585 10.0441 45.7594 10.075 47.2704 10.075C49.9577 10.075 51.761 9.12864 51.8602 7.27368H49.5768Z" fill="white"/>
<path d="M55.7503 7.27368H54.0444H53.5662V10.0286H54.2907L57.1692 7.27368H55.7503Z" fill="white"/>
<path d="M62.5081 7.2738H60.4336V10.0287H62.5081V7.2738Z" fill="white"/>
<path d="M66.0548 7.2738L63.6914 10.0287H64.8006H66.4727L68.7277 7.2738H68.2391H66.0548Z" fill="white"/>
<path d="M74.7093 7.27368H74.1953L76.449 10.0286H76.8917H79.2316L76.8688 7.27368H76.3796H74.7093Z" fill="white"/>
<path d="M70.4023 7.2738V10.0287H70.845H72.5258V7.2738H70.9138H70.4023Z" fill="white"/>
<path d="M80.4305 7.2738V10.0287H80.8167H83.5993H84.7971H88.1185V8.18748H86.9368H82.5689V7.2738H80.4305Z" fill="white"/>
<path d="M98.6333 7.27368H96.4614V10.0286H98.6333V7.27368Z" fill="white"/>
<path d="M91.9258 7.27368H89.7539V10.0286H91.9258V7.27368Z" fill="white"/>
<path d="M109.793 7.2738H107.719V10.0287H109.793V7.2738Z" fill="white"/>
<path d="M100.848 7.27368V10.0286H101.572L104.45 7.27368H103.032H100.848Z" fill="white"/>
<path d="M112.007 7.27368V10.0286H112.085H114.16H116.376H119.697V8.18742H118.515H114.147V7.27368H112.007Z" fill="white"/>
<path d="M10.9329 0.171753H8.71862H4.36801V3.38182H6.53802V2.07478H6.54688H10.9134V3.38182H13.0852V0.171753H10.9329Z" fill="white"/>
<path d="M22.5326 3.38182H23.3971C23.289 1.60761 22.1429 0.171753 19.3086 0.171753H15.3016V3.38182H17.4734V2.00779H19.1775C20.5947 2.00779 21.0535 2.60206 21.1261 3.38182H22.5326Z" fill="white"/>
<path d="M27.1734 3.38182C27.4523 2.94132 27.843 2.5775 28.3081 2.32512C28.7733 2.07274 29.2975 1.94021 29.8306 1.94021C30.3636 1.94021 30.8878 2.07274 31.353 2.32512C31.8182 2.5775 32.2089 2.94132 32.4878 3.38182H34.9234C34.2503 1.31563 32.3903 0 29.8288 0C27.2674 0 25.4002 1.31563 24.7147 3.38182H27.1734Z" fill="white"/>
<path d="M41.0273 0.171753H38.0584V1.29502C38.0584 2.07134 38.0389 2.75836 38 3.38182H40.1115C40.1115 3.28735 40.1115 3.19976 40.1115 3.10358V2.04386H43.231V3.38182H45.3868V0.171753H41.0273Z" fill="white"/>
<path d="M55.716 3.38183C55.8079 3.11079 55.8545 2.82727 55.8542 2.54197C55.8542 1.05973 54.5823 0.0944824 51.7516 0.0944824C50.5452 0.0944824 49.291 0.125397 48.1484 0.171771V3.38183H50.3202V1.80858C50.7064 1.79312 51.1404 1.77766 51.64 1.77766C52.8463 1.77766 53.569 2.16754 53.569 2.93184C53.5684 3.08618 53.5371 3.23896 53.4769 3.38183H55.716Z" fill="white"/>
<path d="M66.8773 3.38182V0.171753H66.6857H66.2021L62.8132 3.38182H64.6949H66.8773Z" fill="white"/>
<path d="M60.0088 0.171875H57.9344V3.38194H60.0088V0.171875Z" fill="white"/>
<path d="M80.4845 3.38182L83.099 0.171753H80.6066L78.0894 3.38182H78.2984H80.4845Z" fill="white"/>
<path d="M76.8918 3.38182V0.171753H76.2402H74.7695V3.38182H75.9072H76.8918Z" fill="white"/>
<path d="M72.5839 3.38194H73.569L71.0537 0.171875H70.4002H68.5594L71.1758 3.38194H71.3866H72.5839Z" fill="white"/>
<path d="M91.9271 0.171753H89.7553H88.0527H84.7971V3.38182H86.9367V2.01123H88.0527H92.4213V0.171753H91.9271Z" fill="white"/>
<path d="M96.293 0.171875H94.1218V3.38194H96.293V0.171875Z" fill="white"/>
<path d="M102.922 0.171753H100.847H100.828V3.38182H103V0.171753H102.922Z" fill="white"/>
<path d="M114.16 3.38182V0.171753H113.485L110.094 3.38182H111.976H114.16Z" fill="white"/>
<path d="M107.295 0.171753H105.219V3.38182H107.295V0.171753Z" fill="white"/>
<path d="M119.631 2.01135H124V0.171875H119.631H116.376V3.38194H118.515V2.01135H119.631Z" fill="white"/>
<path d="M4.35576 3.38184H2.18399V7.27379H4.35576V3.38184Z" fill="white"/>
<path d="M10.9022 3.38184H8.73047V7.27379H10.9022V3.38184Z" fill="white"/>
<path d="M15.2889 7.06421C15.8732 7.16705 16.4665 7.21421 17.0603 7.20509C19.1665 7.20509 21.2267 6.25355 21.2267 3.66523C21.2267 3.56905 21.2267 3.47458 21.2161 3.38184H18.9415C18.9415 3.45913 18.9557 3.53641 18.9557 3.61714C18.9557 4.94307 18.0062 5.42742 16.7521 5.42742C16.2624 5.43531 15.773 5.40371 15.2889 5.33295V3.38184H13.1171V7.27379H15.2889V7.06421Z" fill="white"/>
<path d="M32.7447 3.38184H30.309C30.6184 3.92313 30.7754 4.53384 30.7643 5.15261C30.7857 5.92099 30.5323 6.6729 30.0469 7.28064H32.6137C32.8882 6.60264 33.03 5.88097 33.0317 5.15261C33.0286 4.55171 32.9319 3.95472 32.7447 3.38184Z" fill="white"/>
<path d="M22.5345 3.38184C22.3439 3.95405 22.2452 4.55131 22.2422 5.15261C22.2481 5.87982 22.3954 6.59939 22.6762 7.27379H25.2607C24.7797 6.66419 24.5296 5.91288 24.5521 5.14574C24.5416 4.53009 24.6961 3.92234 25.0003 3.38184H22.5345Z" fill="white"/>
<path d="M43.2105 3.38184H41.0547V7.27374H43.2105V3.38184Z" fill="white"/>
<path d="M37.3009 7.27379C37.7137 6.01523 37.924 4.7025 37.9245 3.38184H35.8129C35.7084 5.01693 35.4586 6.19517 35.0742 7.27379H37.3009Z" fill="white"/>
<path d="M54.0461 7.27369C54.0461 7.21873 54.0567 7.16719 54.0567 7.10191C54.0567 5.83954 53.3482 5.0907 52.1737 4.7781C52.4905 4.65161 52.7757 4.46076 53.0101 4.21842C53.2445 3.97607 53.4226 3.68785 53.5324 3.37317H51.2933C51.0701 3.92449 50.4218 4.20102 49.5679 4.20102H48.1366V3.38175H45.9648V7.27369H48.1366V5.81549H49.6334C50.9992 5.81549 51.7875 6.18991 51.7875 7.03321C51.7858 7.11391 51.7776 7.19431 51.7627 7.27369H54.0461Z" fill="white"/>
<path d="M64.6945 3.38184H62.8128H60.6288L57.8264 6.03545V3.38184H55.7503V7.27379H57.1692H59.3534L62.6181 4.14786V7.27379H64.6945V3.38184Z" fill="white"/>
<path d="M78.3004 3.38184H78.0909H76.8918H75.9072L75.2073 4.27323H74.7094V3.38184H73.5705H72.5853V4.27323H72.088L71.3881 3.38184H71.1773H68.993L70.2528 4.92762L68.2422 7.27374H68.7307H70.4016H70.9131L72.0539 5.87913H72.5853V7.27374H74.196H74.7094V5.87913H75.2389L76.3797 7.27374H76.8689H79.0531L77.0406 4.92762L78.3004 3.38184Z" fill="white"/>
<path d="M84.7535 5.97187H89.5629V4.13239H84.7535V3.38184H82.6133V7.27374H84.7535V5.97187Z" fill="white"/>
<path d="M100.816 3.38184H98.644V4.13239H94.1087V3.38184H91.9375V7.27374H94.1087V6.0354H98.644V7.27374H100.816V3.38184Z" fill="white"/>
<path d="M111.977 3.38184H110.096H107.912L105.11 6.0354V3.38184H103.035V7.27374H104.454H106.637L109.903 4.14786V7.27374H111.977V3.38184Z" fill="white"/>
<path d="M116.331 5.97187H121.141V4.1324H116.331V3.38184H114.192V7.27379H116.331V5.97187Z" fill="white"/>
</svg>
