<svg width="30" height="30" viewBox="0 0 30 30" fill="none" xmlns="http://www.w3.org/2000/svg">
<path d="M22.9549 7.04505C27.3483 11.4384 27.3483 18.5615 22.9549 22.9549C18.5615 27.3483 11.4384 27.3483 7.04505 22.9549C2.65165 18.5615 2.65165 11.4384 7.04505 7.04505C11.4384 2.65165 18.5616 2.65165 22.9549 7.04505" stroke-width="1.5" stroke-linecap="round" stroke-linejoin="round"/>
<path d="M21.6337 24.0713C21.1537 21.7713 18.3812 20 15 20C11.6187 20 8.84621 21.7713 8.36621 24.0713" stroke-width="1.5" stroke-linecap="round" stroke-linejoin="round"/>
<path d="M17.6516 9.84835C19.1161 11.3128 19.1161 13.6872 17.6516 15.1516C16.1872 16.6161 13.8128 16.6161 12.3483 15.1516C10.8839 13.6872 10.8839 11.3128 12.3483 9.84835C13.8128 8.38388 16.1872 8.38388 17.6516 9.84835Z" stroke-width="1.5" stroke-linecap="round" stroke-linejoin="round"/>
</svg>