<svg width="42" height="48" viewBox="0 0 42 48" fill="none" xmlns="http://www.w3.org/2000/svg">
<path fill-rule="evenodd" clip-rule="evenodd" d="M5 0H25.0295L27.0295 2H26.9982L37 11.9983V11.9705L39 13.9705V13.9976L39.0219 14.0194L39 14.0194V46C39 47.1046 38.1046 48 37 48H5C3.89543 48 3 47.1046 3 46V2C3 0.895432 3.89543 0 5 0ZM37 14.0198L27.0025 14.0216C25.8979 14.0218 25.0023 13.1265 25.0021 12.0219L25.0003 2H5V46H37V14.0198Z" fill="#005290"/>
<rect y="19" width="42" height="19" rx="2" fill="#005290"/>
<path d="M9.112 22.8C10.0827 22.8 10.9253 22.96 11.64 23.28C12.3653 23.6 12.92 24.0587 13.304 24.656C13.688 25.2533 13.88 25.9627 13.88 26.784C13.88 27.5947 13.688 28.304 13.304 28.912C12.92 29.5093 12.3653 29.968 11.64 30.288C10.9253 30.608 10.0827 30.768 9.112 30.768H6.584V34H4.504V22.8H9.112ZM9.016 29.008C9.92267 29.008 10.6107 28.816 11.08 28.432C11.5493 28.048 11.784 27.4987 11.784 26.784C11.784 26.0693 11.5493 25.52 11.08 25.136C10.6107 24.752 9.92267 24.56 9.016 24.56H6.584V29.008H9.016ZM15.9571 22.8H20.8531C22.0478 22.8 23.1091 23.0347 24.0371 23.504C24.9651 23.9627 25.6851 24.6187 26.1971 25.472C26.7091 26.3147 26.9651 27.2907 26.9651 28.4C26.9651 29.5093 26.7091 30.4907 26.1971 31.344C25.6851 32.1867 24.9651 32.8427 24.0371 33.312C23.1091 33.7707 22.0478 34 20.8531 34H15.9571V22.8ZM20.7571 32.24C21.5785 32.24 22.2985 32.0853 22.9171 31.776C23.5465 31.456 24.0265 31.008 24.3571 30.432C24.6985 29.8453 24.8691 29.168 24.8691 28.4C24.8691 27.632 24.6985 26.96 24.3571 26.384C24.0265 25.7973 23.5465 25.3493 22.9171 25.04C22.2985 24.72 21.5785 24.56 20.7571 24.56H18.0371V32.24H20.7571ZM31.2559 24.544V27.952H36.6639V29.712H31.2559V34H29.1759V22.8H37.3519V24.544H31.2559Z" fill="white"/>
</svg>
